<?xml version="1.0" standalone="no"?>
<!DOCTYPE svg PUBLIC "-//W3C//DTD SVG 20010904//EN"
 "http://www.w3.org/TR/2001/REC-SVG-20010904/DTD/svg10.dtd">
<svg version="1.0" xmlns="http://www.w3.org/2000/svg"
 width="840.000000pt" height="853.000000pt" viewBox="0 0 840.000000 853.000000"
 preserveAspectRatio="xMidYMid meet">

<g transform="translate(0.000000,853.000000) scale(0.100000,-0.100000)"
fill="#000000" stroke="none">
<path d="M2600 8121 c-38 -12 -108 -49 -182 -97 -38 -24 -68 -41 -68 -39 0 3
-8 -3 -19 -12 -10 -10 -33 -29 -50 -43 -37 -29 -54 -44 -219 -195 -66 -60
-121 -115 -121 -122 -1 -6 -11 -19 -23 -28 -13 -8 -23 -19 -23 -24 0 -5 -12
-20 -27 -34 -15 -14 -24 -28 -21 -31 3 -3 -2 -8 -11 -12 -9 -3 -16 -10 -16
-15 0 -4 -10 -19 -22 -33 -31 -32 -40 -46 -57 -78 -17 -33 -20 -34 -63 -9 -57
33 -164 54 -236 46 -81 -9 -131 -26 -207 -72 -53 -32 -143 -113 -126 -113 3 0
1 -4 -5 -8 -18 -12 -52 -77 -47 -89 3 -7 1 -13 -4 -13 -12 0 -14 -16 -17 -157
-2 -68 0 -123 4 -123 4 0 12 -17 17 -37 l9 -38 -89 -60 c-49 -33 -98 -65 -109
-71 -10 -6 -24 -18 -31 -26 -19 -23 -173 -158 -180 -158 -11 0 -127 -119 -127
-129 0 -5 -11 -18 -25 -29 -14 -11 -25 -23 -25 -27 0 -4 -16 -23 -36 -41 -19
-19 -32 -34 -27 -34 4 0 -1 -7 -11 -15 -11 -8 -16 -15 -11 -15 4 0 -4 -11 -19
-25 -15 -14 -23 -25 -19 -25 4 0 3 -4 -3 -8 -22 -14 -73 -94 -79 -123 -4 -16
-11 -29 -16 -29 -6 0 -7 -4 -4 -10 3 -5 2 -10 -4 -10 -6 0 -8 -7 -5 -15 4 -8
2 -15 -3 -15 -4 0 -8 -23 -8 -51 0 -39 4 -53 19 -61 54 -30 208 33 353 145 34
26 65 47 68 47 4 0 19 11 34 25 45 43 101 93 101 91 0 -1 47 44 105 102 58 57
105 107 105 111 0 5 18 23 39 42 22 18 38 36 35 40 -2 4 6 16 19 26 13 10 24
21 25 26 1 4 10 16 20 26 34 38 41 49 35 55 -4 3 0 6 7 6 7 0 10 3 7 6 -7 8
33 46 42 41 34 -19 91 -39 151 -53 66 -15 78 -15 153 0 l80 17 36 -33 c20 -17
63 -58 96 -90 33 -31 99 -94 148 -139 48 -46 87 -88 87 -95 0 -6 25 -33 55
-58 30 -26 54 -51 52 -55 -1 -4 25 -33 57 -64 33 -31 56 -57 51 -57 -5 0 1 -7
13 -16 12 -8 22 -20 22 -25 0 -6 16 -26 36 -45 20 -19 34 -34 31 -34 -4 0 6
-13 21 -29 37 -41 52 -60 53 -65 0 -3 15 -22 34 -42 20 -20 33 -39 31 -42 -3
-2 7 -15 20 -27 14 -13 26 -27 27 -32 0 -4 5 -12 9 -18 5 -5 18 -21 29 -35 12
-14 28 -38 36 -55 9 -16 24 -35 33 -42 10 -7 23 -26 30 -43 7 -16 17 -30 22
-30 5 0 7 -4 4 -8 -3 -5 4 -14 14 -22 10 -8 17 -17 14 -22 -3 -4 0 -8 7 -8 7
0 10 -3 6 -6 -3 -3 -1 -11 4 -18 14 -16 71 -106 88 -139 8 -15 18 -27 23 -27
4 0 8 -7 8 -15 0 -8 5 -15 11 -15 5 0 7 -5 4 -10 -3 -6 0 -13 8 -16 8 -3 18
-15 21 -27 3 -12 6 -24 7 -27 1 -3 8 -14 15 -25 16 -22 19 -55 5 -55 -5 0 -13
-10 -17 -22 -3 -12 -12 -28 -19 -34 -7 -7 -15 -31 -19 -53 -3 -22 -12 -46 -19
-53 -8 -7 -12 -19 -9 -26 2 -6 0 -12 -5 -12 -4 0 -9 -11 -9 -25 -1 -14 -5 -33
-9 -43 -9 -19 -14 -37 -19 -67 -50 -281 -48 -421 5 -638 11 -43 17 -83 14 -88
-4 -5 -1 -9 5 -9 7 0 9 -7 6 -16 -4 -9 -2 -22 3 -28 5 -6 10 -14 10 -19 0 -4
8 -18 17 -32 9 -13 13 -29 9 -35 -3 -5 -2 -10 2 -10 15 0 12 -38 -3 -44 -8 -3
-14 -13 -14 -21 0 -9 -7 -23 -15 -31 -8 -8 -12 -21 -9 -29 4 -8 2 -15 -4 -15
-6 0 -16 -16 -22 -35 -6 -19 -16 -35 -21 -35 -6 0 -7 -4 -4 -10 3 -5 2 -10 -4
-10 -5 0 -15 -16 -22 -35 -7 -19 -17 -35 -22 -35 -4 0 -6 -4 -3 -9 3 -5 -1
-12 -10 -15 -8 -3 -13 -10 -10 -14 3 -5 -3 -18 -14 -29 -10 -12 -16 -24 -13
-27 4 -3 1 -6 -5 -6 -7 0 -12 -7 -12 -15 0 -8 -5 -15 -12 -15 -6 0 -9 -3 -5
-6 3 -3 -3 -15 -13 -27 -11 -11 -17 -24 -14 -28 2 -4 -4 -14 -13 -21 -10 -7
-19 -19 -21 -27 -2 -8 -13 -23 -24 -33 -12 -10 -17 -18 -12 -18 5 0 -4 -11
-19 -25 -15 -14 -27 -32 -27 -40 0 -8 -4 -15 -10 -15 -5 0 -10 -5 -10 -12 0
-6 -7 -18 -15 -27 -46 -51 -53 -60 -49 -64 3 -3 -6 -14 -20 -25 -14 -10 -23
-22 -21 -24 3 -3 -10 -21 -29 -41 -18 -20 -32 -38 -29 -41 3 -2 -5 -9 -16 -16
-12 -6 -21 -16 -21 -23 0 -7 -22 -36 -49 -65 -27 -29 -51 -59 -55 -67 -3 -8
-10 -15 -16 -15 -5 0 -10 -5 -10 -11 0 -7 -17 -28 -37 -47 -21 -20 -37 -39
-36 -44 2 -4 -6 -12 -17 -18 -11 -6 -20 -17 -20 -26 0 -8 -11 -20 -25 -26 -14
-6 -25 -17 -25 -24 0 -7 -9 -18 -20 -24 -11 -6 -20 -15 -20 -21 0 -6 -28 -39
-62 -72 -35 -34 -62 -65 -60 -69 1 -4 -16 -22 -38 -41 -22 -19 -40 -38 -40
-44 0 -6 -26 -34 -57 -64 l-58 -54 -130 0 c-112 -1 -137 -4 -177 -22 -27 -13
-48 -18 -48 -12 0 10 -28 50 -65 92 -8 9 -12 17 -8 17 3 0 -14 18 -38 41 -24
22 -44 44 -44 47 0 9 -154 162 -163 162 -4 0 -48 40 -99 89 -51 49 -94 87 -96
85 -2 -2 -16 7 -31 21 -15 14 -30 25 -33 25 -3 0 -29 17 -57 38 -156 117 -339
192 -401 164 -25 -11 -26 -16 -23 -72 1 -33 6 -60 10 -60 5 0 8 -9 8 -20 0
-10 8 -24 17 -29 10 -6 15 -11 10 -11 -12 0 43 -78 59 -84 9 -3 13 -10 9 -15
-3 -6 3 -14 12 -20 10 -6 14 -11 9 -11 -5 0 22 -30 60 -66 38 -37 60 -61 49
-53 -11 7 3 -10 32 -39 29 -28 56 -52 60 -52 5 0 25 -16 44 -36 78 -82 276
-234 403 -310 128 -76 123 -72 110 -81 -20 -14 -53 -145 -55 -218 -1 -39 4
-87 10 -108 7 -20 10 -41 6 -47 -3 -5 -2 -10 4 -10 5 0 12 -14 16 -30 4 -17
11 -30 16 -30 6 0 8 -4 5 -9 -3 -5 5 -20 18 -34 13 -13 26 -32 29 -41 4 -9 11
-16 18 -16 6 0 25 -12 42 -26 72 -61 195 -104 295 -104 54 0 132 19 179 43 31
17 32 17 55 -14 13 -17 36 -44 53 -60 16 -16 27 -29 23 -29 -10 0 294 -296
352 -341 274 -217 460 -310 555 -279 28 9 34 16 31 33 -19 94 -30 128 -42 138
-7 6 -11 15 -8 20 3 5 0 9 -7 9 -7 0 -9 3 -6 6 4 4 -3 15 -15 25 -11 11 -18
19 -15 19 4 0 -2 10 -13 22 -47 54 -55 63 -54 68 1 6 -290 294 -300 297 -7 2
-30 22 -82 70 -13 12 -24 20 -24 18 0 -2 -38 24 -84 58 -47 34 -109 77 -140
96 -58 36 -71 58 -52 88 7 10 13 29 14 42 0 13 7 28 14 32 10 7 10 9 1 9 -9 0
-11 13 -7 43 3 23 1 71 -4 106 -8 58 -7 66 12 85 12 12 20 24 19 28 -2 4 19
25 46 45 28 21 50 43 50 48 1 13 223 235 236 236 6 0 24 19 40 41 17 23 39 46
49 52 11 6 31 23 44 38 13 16 28 28 34 28 6 0 19 11 29 24 19 24 179 160 179
153 0 -3 16 11 35 29 19 18 81 67 138 109 56 41 117 88 136 103 59 48 325 221
332 216 4 -2 9 0 11 5 4 13 169 111 185 111 6 0 27 -9 45 -20 46 -27 147 -64
264 -96 94 -27 110 -28 324 -28 155 -1 244 3 285 13 100 22 212 59 292 96 42
19 80 35 86 35 18 0 167 -92 167 -103 0 -6 3 -8 6 -5 10 10 134 -67 134 -83 0
-5 4 -8 8 -6 9 2 101 -54 125 -76 6 -7 31 -25 55 -41 23 -16 42 -33 42 -37 0
-5 5 -9 10 -9 20 0 230 -167 230 -182 0 -4 5 -8 10 -8 21 0 374 -309 384 -336
3 -8 11 -14 18 -14 7 0 55 -43 106 -95 50 -52 94 -94 97 -93 2 2 54 -46 115
-107 98 -98 126 -135 103 -135 -18 0 -14 -133 7 -216 21 -83 21 -122 0 -109
-5 3 -10 2 -10 -3 0 -10 -53 -50 -71 -54 -7 -2 -26 -16 -41 -33 -15 -16 -28
-27 -28 -24 0 3 -29 -22 -63 -55 -35 -34 -86 -82 -113 -107 -58 -54 -173 -179
-165 -179 3 0 -11 -15 -31 -34 -20 -19 -34 -36 -31 -40 3 -3 -2 -8 -11 -12 -9
-3 -16 -11 -16 -18 0 -6 -9 -17 -20 -24 -12 -7 -18 -17 -15 -22 3 -6 2 -10 -2
-10 -12 0 -112 -152 -116 -176 -8 -42 -20 -74 -26 -74 -12 0 -2 -82 11 -98 17
-20 99 -10 158 19 51 24 210 132 249 168 14 12 43 39 64 59 20 20 37 34 37 31
0 -2 41 35 90 84 50 49 90 92 90 95 0 3 20 25 44 48 25 23 42 44 40 47 -3 2
12 19 32 36 20 18 37 38 38 46 1 8 12 23 24 33 12 11 19 22 15 26 -3 3 0 6 7
6 7 0 10 3 7 6 -4 4 3 15 15 25 11 11 18 19 14 19 -4 0 0 7 8 15 9 9 19 23 24
31 7 13 14 12 53 -5 80 -35 161 -46 239 -33 72 12 171 53 205 85 11 10 35 27
53 39 17 11 30 23 27 28 -2 4 4 15 15 25 11 10 20 23 20 28 0 5 7 15 15 21 8
6 17 22 19 36 3 14 5 25 6 25 8 0 14 69 14 155 0 111 -4 152 -14 160 -4 3 -10
17 -14 33 -5 20 -3 27 9 27 8 0 23 7 32 15 10 8 47 36 83 62 99 72 218 172
224 189 3 8 10 14 16 14 13 0 180 168 180 180 0 5 10 16 22 24 12 9 18 16 13
16 -5 0 7 14 26 31 19 17 33 35 31 40 -1 5 3 9 9 9 5 0 8 4 5 9 -3 5 5 17 19
27 13 10 22 21 19 25 -2 5 5 13 16 19 11 6 20 16 20 23 0 7 8 22 18 33 24 27
65 104 55 104 -4 0 -3 4 4 8 14 9 26 61 27 117 1 32 -4 42 -25 54 -23 13 -33
13 -70 1 -72 -22 -253 -130 -294 -175 -5 -6 -19 -18 -29 -25 -18 -13 -19 -13
-11 0 5 8 -17 -13 -49 -48 -32 -34 -61 -62 -65 -62 -9 0 -141 -127 -141 -136
0 -4 -20 -26 -45 -50 -25 -23 -45 -46 -45 -51 0 -5 -13 -20 -30 -33 -16 -14
-29 -31 -30 -37 0 -7 -4 -13 -10 -13 -5 0 -10 -6 -10 -13 0 -7 -9 -19 -20 -27
-11 -8 -20 -20 -20 -27 0 -7 -5 -13 -12 -13 -6 0 -9 -3 -5 -6 3 -4 -4 -15 -16
-25 -12 -10 -18 -18 -14 -19 5 0 -7 -16 -25 -35 l-33 -35 -42 19 c-82 40 -214
53 -295 29 l-38 -11 -189 189 c-104 104 -187 192 -185 196 2 3 -9 16 -26 28
-16 12 -30 26 -30 31 0 5 -19 28 -42 50 -24 23 -43 44 -43 48 -1 3 -22 28 -48
54 -26 26 -47 52 -47 58 0 6 -15 23 -32 40 -18 16 -29 29 -25 29 5 0 -4 11
-19 25 -15 14 -23 25 -18 25 5 0 0 7 -10 15 -11 8 -17 15 -13 15 4 0 -1 9 -10
19 -31 34 -43 50 -43 57 0 4 -10 15 -22 25 -11 11 -18 19 -14 19 4 0 -4 11
-18 23 -14 13 -23 27 -19 30 3 4 0 7 -7 7 -7 0 -11 3 -7 6 3 3 -5 17 -18 30
-13 13 -26 33 -30 44 -3 11 -10 20 -15 20 -5 0 -12 9 -15 20 -3 11 -12 26 -20
33 -7 8 -28 38 -46 68 -18 30 -37 57 -42 60 -5 3 -8 8 -8 10 2 13 -12 48 -18
44 -4 -2 -13 12 -20 31 -7 18 -16 34 -21 34 -4 0 -11 11 -14 25 -4 14 -11 25
-17 25 -6 0 -8 4 -5 9 3 5 -1 11 -9 15 -8 3 -15 17 -15 30 0 14 -7 29 -15 34
-9 4 -17 17 -19 29 -5 25 -46 106 -57 113 -5 3 3 30 17 59 13 30 22 56 19 59
-3 3 2 13 11 23 9 10 16 31 16 46 0 15 3 33 6 38 4 6 8 17 9 25 8 44 14 87 29
205 14 120 14 142 -1 270 -18 161 -18 158 -44 250 -11 38 -18 72 -15 76 2 4 0
10 -6 14 -14 9 -41 75 -35 85 3 5 1 10 -4 12 -13 4 15 81 44 125 14 20 25 42
25 49 0 8 5 14 10 14 6 0 10 7 10 15 0 8 5 15 12 15 6 0 9 3 5 6 -3 3 3 15 13
27 11 11 17 24 14 29 -3 4 -1 8 3 8 5 0 17 16 27 35 11 19 23 35 28 35 5 0 7
4 4 9 -3 4 4 17 15 27 11 10 29 34 41 53 12 20 30 42 40 49 10 7 18 18 18 23
0 10 10 24 42 59 9 10 14 20 12 22 -2 3 8 19 24 36 15 17 41 48 57 68 17 21
40 48 52 61 12 13 19 23 15 23 -4 0 12 18 36 40 23 22 39 40 35 40 -5 1 3 10
16 20 13 11 20 20 15 20 -4 0 19 26 51 58 33 31 58 59 57 60 -4 4 72 84 201
213 31 32 57 61 57 66 0 12 233 243 245 243 6 0 34 27 63 60 l53 60 102 0 c61
1 116 6 137 14 19 8 51 20 70 27 19 8 40 20 46 28 8 10 13 11 18 3 4 -7 4 -12
0 -12 -4 0 3 -8 14 -19 12 -10 22 -22 22 -27 0 -5 9 -15 21 -22 12 -7 19 -16
16 -18 -8 -8 185 -196 271 -266 40 -32 76 -66 79 -74 3 -7 11 -14 18 -14 7 0
18 -6 24 -14 18 -21 258 -179 321 -211 119 -60 224 -82 249 -51 22 26 -4 136
-32 136 -4 0 -6 4 -3 9 3 4 -6 18 -19 31 -13 13 -23 26 -20 30 2 3 -7 14 -20
24 -14 10 -22 22 -19 27 3 5 -2 12 -10 15 -9 3 -16 10 -16 14 0 8 -249 260
-257 260 -2 0 -37 28 -77 63 -40 34 -83 71 -97 82 -48 39 -205 143 -267 178
-35 19 -63 37 -62 41 0 3 7 24 15 47 24 68 20 204 -10 290 -13 41 -29 75 -35
77 -6 2 -8 8 -4 13 3 5 0 9 -7 9 -7 0 -10 3 -7 6 13 13 -97 105 -164 139 -131
64 -257 67 -400 10 -13 -5 -18 -2 -18 9 0 9 -7 19 -15 22 -8 4 -13 9 -10 13 2
4 -5 14 -16 21 -10 8 -19 20 -19 27 0 7 -9 17 -20 23 -11 6 -19 14 -18 18 3 9
-240 251 -246 245 -2 -3 -27 17 -55 44 -28 27 -53 48 -54 46 -2 -1 -19 12 -39
30 -19 17 -39 34 -44 36 -5 3 -53 33 -106 68 -187 123 -330 173 -396 139 l-30
-16 13 -58 c16 -69 34 -112 47 -112 5 0 6 -4 3 -10 -3 -5 -2 -10 4 -10 5 0 13
-9 16 -20 4 -12 25 -39 48 -60 22 -22 37 -40 33 -40 -5 0 3 -9 18 -21 14 -11
26 -27 26 -35 0 -8 4 -14 8 -14 11 0 112 -100 112 -111 0 -5 6 -9 13 -9 7 0
44 -29 82 -65 39 -36 73 -65 77 -65 4 0 22 -13 40 -28 52 -45 197 -147 273
-193 39 -23 72 -43 74 -45 1 -1 -4 -13 -12 -25 -9 -11 -13 -28 -10 -37 4 -10
2 -13 -5 -8 -6 4 -11 -1 -10 -11 0 -10 -5 -49 -10 -88 -12 -75 -9 -139 8 -195
l11 -35 -216 -213 c-119 -118 -218 -212 -221 -210 -2 2 -31 -22 -64 -55 -34
-32 -64 -57 -67 -54 -3 3 -18 -10 -35 -29 -16 -19 -34 -31 -39 -28 -5 3 -9 1
-9 -4 0 -5 -31 -35 -70 -66 -38 -31 -70 -55 -70 -52 0 3 -17 -11 -37 -29 -21
-19 -41 -35 -44 -35 -6 0 -64 -43 -107 -80 -13 -11 -28 -20 -32 -20 -5 0 -20
-10 -34 -23 -14 -13 -42 -32 -63 -43 -21 -10 -42 -25 -46 -31 -4 -7 -15 -13
-22 -13 -8 0 -15 -4 -15 -8 0 -9 -53 -36 -58 -30 -2 1 -8 -5 -13 -14 -8 -15
-211 -140 -355 -219 l-61 -33 -89 37 c-101 41 -193 69 -309 93 -100 21 -351
24 -450 5 -87 -16 -228 -55 -277 -75 l-37 -16 -123 63 c-68 35 -158 86 -202
113 -43 27 -93 58 -112 69 -18 11 -55 35 -81 54 -26 19 -79 56 -118 82 -38 26
-85 61 -103 78 -18 17 -35 30 -38 30 -3 -1 -30 19 -61 43 -168 132 -215 172
-220 184 -3 8 -10 14 -15 14 -14 0 -163 125 -189 158 -11 15 -23 25 -25 22 -7
-10 -374 332 -374 349 0 3 -8 13 -18 20 -16 11 -18 20 -10 60 8 42 2 157 -12
216 -1 6 -2 13 -1 18 0 4 -3 7 -8 7 -5 0 -8 7 -7 15 2 15 88 75 106 75 6 0 10
4 10 8 0 5 21 24 48 42 26 18 64 49 85 69 20 19 37 32 37 28 0 -4 28 22 62 58
34 36 65 65 68 65 12 0 104 91 114 113 6 12 21 26 34 32 12 5 22 15 22 22 0 7
8 17 18 22 9 6 13 11 7 11 -5 0 8 16 29 35 22 19 37 35 33 35 -4 0 1 9 11 19
34 38 41 49 35 55 -4 3 -1 6 5 6 6 0 24 24 38 53 15 28 32 55 38 59 6 4 7 10
4 14 -4 4 -2 16 3 27 6 11 14 43 18 72 6 45 5 54 -11 64 -20 12 -70 13 -108 2z
m4337 -1109 c7 -9 16 -22 21 -28 19 -22 22 -51 8 -63 -8 -7 -13 -18 -10 -26 3
-7 0 -16 -7 -21 -8 -5 -10 -3 -5 7 4 8 -1 4 -10 -8 -13 -18 -26 -23 -60 -23
-40 0 -46 3 -69 40 -26 42 -31 60 -16 60 5 0 12 13 16 28 12 56 101 79 132 34z
m-5405 9 c13 -5 30 -22 38 -37 8 -16 19 -32 24 -35 5 -4 -1 -21 -13 -38 -12
-17 -19 -31 -14 -31 4 0 -1 -7 -11 -15 -29 -22 -98 -19 -118 4 -9 11 -14 22
-11 25 4 3 1 6 -6 6 -7 0 -11 13 -9 35 1 19 6 35 12 35 5 0 6 3 3 7 -10 9 41
53 63 53 10 0 29 -4 42 -9z m18 -5361 c8 -5 11 -10 5 -10 -5 0 -3 -6 5 -13 8
-7 21 -24 28 -38 13 -24 11 -30 -13 -67 -25 -37 -48 -52 -86 -52 -19 0 -71 45
-62 54 4 3 2 6 -4 6 -17 0 -6 70 16 101 17 23 29 29 59 29 20 0 44 -5 52 -10z
m5346 -15 c4 -8 10 -13 14 -10 5 3 14 -11 20 -30 9 -28 9 -43 0 -66 -15 -35
-55 -69 -81 -69 -25 0 -69 21 -64 31 3 4 -2 15 -11 23 -8 9 -13 16 -9 16 3 0
1 9 -5 21 -9 16 -8 28 4 54 19 39 27 43 84 44 29 1 44 -4 48 -14z"/>
</g>
</svg>
